# xmcd
#
# Track frame offsets: 
#        150
#        14063
#        30553
#        47613
#        68609
#        83775
#        100319
#        117113
#        132940
#        148439
#        159027
#        176156
#        194031
#
# Disc length: 2827 seconds
#
# Revision: 0
# Processed by: cddbd v1.5.2PL0 Copyright (c) Steve Scherf et al.
# Submitted via: ExactAudioCopy v1.0b3
#
DISCID=b40b090d
DTITLE=The Macs - Strumming To Your Beat
DYEAR=2013
DGENRE=
TTITLE0=Beautiful People
TTITLE1=Here In Your Arms
TTITLE2=Put The Light Out
TTITLE3=I Run To You
TTITLE4=Because I Love You
TTITLE5=What If You're Wrong
TTITLE6=Let Your Heart Lead
TTITLE7=Peaceful Easy Feeling
TTITLE8=I Wanna Be With Her Tonight
TTITLE9=Winter Air
TTITLE10=You're The One I Need
TTITLE11=Just The Way You Are
TTITLE12=Amazed
EXTD=
EXTT0=
EXTT1=
EXTT2=
EXTT3=
EXTT4=
EXTT5=
EXTT6=
EXTT7=
EXTT8=
EXTT9=
EXTT10=
EXTT11=
EXTT12=
PLAYORDER=
